# xmcd
# 
# Track frame offsets:
#     182
#     18632
#     44712
#     61657
#     82432
#     104897
#     132537
#     166262
#     196397
#     218705
#     243862
#     262550
#     284492
# 
# Disc length: 4540
# 
# Revision: 27
# Processed by: cddbd v1.5.2PL0 Copyright (c) Steve Scherf et al.
# Submitted via: fre:ac v1.0.31
# 
DISCID=c411ba0d
DTITLE=Jimmy Paget - No Quarter: Jimmy Page and Robert Plant Unledded (82706-2)
DYEAR=1994
DGENRE=Rock/Pop
TTITLE0=Nobody's Fault but Mine
TTITLE1=Thank You
TTITLE2=No Quarter
TTITLE3=Friends
TTITLE4=Yallah
TTITLE5=City Don't Cry
TTITLE6=Since I've Been Loving You
TTITLE7=The Battle of Evermore
TTITLE8=Wonderful One
TTITLE9=That's the Way
TTITLE10=Gallows Pole
TTITLE11=Four Sticks
TTITLE12=Kashmir
EXTD=from legendary Led Zeppelin YEAR: 1994
EXTT0=
EXTT1=
EXTT2=
EXTT3=
EXTT4=
EXTT5=
EXTT6=
EXTT7=
EXTT8=
EXTT9=
EXTT10=
EXTT11=
EXTT12=
PLAYORDER=
